<?xml version="1.0" encoding="utf-8"?>
<svg viewBox="0 0 30 27" x="0px" y="0px" xmlns="http://www.w3.org/2000/svg" xmlns:bx="https://boxy-svg.com">
  <title>Icone_Varie_04</title>
  <g data-name="Layer 1" transform="matrix(0.772612, 0, 0, 0.749778, -0.073925, 0.07391)" style="" bx:origin="0.483645 0.526441">
    <path d="M 33.004 7.741 C 33.004 5.877 28.138 5.03 23.615 5.03 C 19.093 5.03 14.228 5.877 14.228 7.741 C 14.228 8.871 15.266 11.636 19.304 12.819 C 18.103 13.212 17.021 13.827 16.129 14.624 C 16.245 14.519 5.044 21.713 5.044 21.713 C 4.709 22.015 6.741 24.375 7.205 24.474 C 7.424 24.519 5.886 22.586 6.039 22.445 C 5.818 22.28 16.656 15.073 16.877 15.238 C 18.346 13.944 20.498 13.363 22.582 13.373 C 24.81 13.351 26.933 14.174 28.404 15.627 C 26.449 15.686 22.889 15.87 20.748 17.645 C 18.582 19.319 17.381 20.894 18.762 22.754 C 18.612 22.815 9.158 29.353 9.162 29.216 C 8.834 29.524 9.507 29.933 9.976 30.021 C 10.198 30.064 10.223 29.942 10.399 29.801 C 13.646 27.207 29.995 16.302 29.989 16.302 C 29.158 14.994 28.222 13.779 26.683 13.119 C 31.783 12.21 33.004 9.07 33.004 7.741 Z M 21.486 18.195 C 25.067 16.053 27.142 16.419 28.471 16.409 C 28.47 16.409 19.286 22.243 19.466 22.2 C 18.682 20.827 19.41 19.438 21.486 18.195 Z M 23.549 5.8 C 28.935 5.752 32.304 7.137 32.304 7.624 C 32.304 8.107 29.361 9.449 23.522 9.566 C 17.683 9.683 14.839 8.176 15.182 7.616 C 15.649 6.854 18.172 5.848 23.549 5.8 Z M 23.452 12.558 C 19.037 12.558 16.417 10.509 15.472 9.163 C 17.309 9.838 20.815 10.368 23.586 10.368 C 26.378 10.368 29.88 9.952 31.706 9.269 C 30.794 10.624 27.955 12.558 23.452 12.558 Z"/>
  </g>
</svg>